<?xml version="1.0" encoding="utf-8"?>
<!--
  - @package   pkg_radicalmicro
  - @version   0.2.1
  - @author    Dmitriy Vasyukov - https://fictionlabs.ru
  - @copyright Copyright (c) 2022 Fictionlabs. All rights reserved.
  - @license   GNU/GPL license: http://www.gnu.org/copyleft/gpl.html
  - @link      https://fictionlabs.ru/
  -->

<svg version="1.1" id="Слой_1" xmlns="http://www.w3.org/2000/svg" xmlns:xlink="http://www.w3.org/1999/xlink" x="0px" y="0px"
	 width="20px" height="20px" viewBox="0 0 20 20" style="enable-background:new 0 0 20 20;" xml:space="preserve">
<path d="M6,3.5C4.9,3.5,4.1,3.7,3.7,4S3.1,5,3.1,6v1.7c0,0.7-0.1,1.2-0.4,1.4C2.5,9.4,2.1,9.5,1.4,9.5H1v1h0.4
	c0.6,0,1.1,0.1,1.3,0.4s0.4,0.7,0.4,1.4V14c0,1,0.2,1.7,0.6,2c0.4,0.3,1.2,0.5,2.3,0.5h0.4v-1H6c-0.6,0-1.1-0.1-1.3-0.3
	c-0.2-0.2-0.3-0.6-0.3-1.3v-1.7c0-0.7-0.1-1.2-0.3-1.6C3.9,10.3,3.5,10.1,3,10c0.5-0.1,0.9-0.3,1.1-0.7C4.3,9,4.4,8.5,4.4,7.8V6.1
	c0-0.7,0.1-1.1,0.3-1.3C4.9,4.6,5.3,4.5,6,4.5h0.5v-1H6z M13.5,3.5v1H14c0.6,0,1.1,0.1,1.3,0.3s0.3,0.6,0.3,1.3v1.7
	c0,0.7,0.1,1.2,0.3,1.6c0.2,0.3,0.6,0.5,1.1,0.7c-0.5,0.1-0.9,0.3-1.1,0.7c-0.2,0.3-0.3,0.8-0.3,1.6v1.7c0,0.7-0.1,1.1-0.3,1.3
	s-0.6,0.3-1.3,0.3h-0.5v1H14c1.1,0,1.9-0.2,2.3-0.5c0.4-0.3,0.6-1,0.6-2l0-1.7c0-0.7,0.1-1.2,0.4-1.4c0.3-0.3,0.7-0.4,1.4-0.4H19v-1
	h-0.4c-0.6,0-1.1-0.1-1.4-0.4c-0.3-0.3-0.4-0.7-0.4-1.4V6c0-1-0.2-1.7-0.6-2c-0.4-0.3-1.1-0.5-2.3-0.5H13.5z M12.1,5
	c-0.3,0-0.6,0.1-0.9,0.3c-0.3,0.2-0.5,0.4-0.7,0.7c-0.2,0.4-0.3,0.8-0.2,1.2l0,0v0.1c0,0.1,0,0.2-0.1,0.2c-0.1,0.1-0.2,0.2-0.3,0.4
	C9.8,7.9,9.6,8.1,9.3,8.3C8.8,8.5,8.4,8.7,8.1,8.7c-0.2,0-0.3,0-0.4-0.1l0,0l0,0.1L7.6,8.6C7.2,8.4,6.7,8.3,6.2,8.5S5.4,8.9,5.2,9.4
	S4.9,10.3,5,10.7c0.2,0.5,0.4,0.8,0.9,1.1c0.3,0.2,0.7,0.2,1,0.2s0.7-0.2,1-0.4l0,0L8,11.6c0.1,0,0.2,0,0.3,0c0.1,0,0.3,0,0.5,0.1
	c0.2,0.1,0.5,0.2,0.7,0.3c0.4,0.2,0.7,0.4,0.9,0.7c0.1,0.2,0.2,0.3,0.2,0.5c0,0.3,0.1,0.7,0.2,1c0.2,0.3,0.4,0.5,0.7,0.7
	c0.4,0.2,0.9,0.3,1.4,0.1c0.5-0.1,0.8-0.4,1.1-0.9c0.2-0.4,0.3-0.9,0.1-1.4s-0.4-0.8-0.9-1.1c-0.1,0-0.1-0.1-0.2-0.1h0L13,11.4
	c-0.1,0-0.1-0.1-0.1-0.2c-0.1-0.1-0.1-0.3-0.2-0.4c0-0.2-0.1-0.5-0.1-0.8c0-0.3,0-0.6,0-0.8c0-0.2,0.1-0.3,0.1-0.5
	c0-0.1,0.1-0.2,0.1-0.2L13,8.5H13c0.3-0.2,0.6-0.4,0.8-0.8C14,7.2,14,6.8,13.9,6.3S13.4,5.5,13,5.2C12.7,5.1,12.4,5,12.1,5z
	 M12.1,5.3c0.3,0,0.6,0.1,0.8,0.3l0,0c-0.1-0.1-0.3-0.2-0.6-0.1s-0.5,0.1-0.7,0.3c0.1,0.1,0.1,0.2,0.1,0.3s0,0.2-0.1,0.3
	c-0.1,0.1-0.2,0.1-0.3,0.1c0,0-0.1,0-0.1,0h0c-0.1,0-0.2,0-0.3,0.1c-0.1,0.2-0.2,0.5-0.2,0.7s0,0.4,0.1,0.5
	c-0.2-0.3-0.3-0.6-0.3-0.9c0-0.4,0.1-0.7,0.4-1c0.2-0.2,0.3-0.3,0.5-0.4S11.9,5.3,12.1,5.3z M10.9,8.3c0.1,0,0.1,0,0.2,0l0.2,0.1
	c0.1,0,0.2,0.1,0.3,0.1C11.9,8.8,12,9.3,12,10c0,0.4,0,0.8-0.1,1.1c-0.1,0.2-0.2,0.3-0.3,0.4c-0.2,0.1-0.3,0.2-0.4,0.3
	c-0.1,0-0.3,0-0.4,0c-0.3,0-0.6-0.2-1-0.4C9.3,11.2,9,11,8.8,10.8c-0.1-0.1-0.2-0.3-0.2-0.4c0-0.2,0-0.3,0-0.5l0,0V9.8
	c0-0.1,0-0.1,0.1-0.2C8.7,9.5,8.8,9.4,9,9.3C9.1,9.1,9.3,9,9.6,8.8C10.1,8.5,10.5,8.3,10.9,8.3L10.9,8.3z M6.8,8.7
	c0.3,0,0.6,0.1,0.8,0.3h0C7.5,8.9,7.3,8.9,7.1,8.9C6.8,8.9,6.6,9,6.3,9.2c0.1,0.1,0.1,0.2,0.1,0.3c0,0.1,0,0.2-0.1,0.3
	C6.3,9.8,6.2,9.8,6.1,9.8c0,0-0.1,0-0.1,0h0c-0.1,0-0.2,0-0.3,0.1c-0.1,0.2-0.2,0.4-0.2,0.7c0,0.2,0,0.4,0.1,0.5
	c-0.2-0.2-0.4-0.5-0.3-0.9s0.2-0.7,0.4-1C5.9,9.1,6,9,6.2,8.9C6.4,8.8,6.6,8.7,6.8,8.7z M12.5,11.6c0.3,0,0.6,0.1,0.8,0.3h0
	c-0.1-0.1-0.3-0.1-0.5-0.1c-0.2,0-0.5,0.1-0.7,0.3c0.1,0.1,0.1,0.1,0.1,0.2s0,0.2-0.1,0.3c-0.1,0.1-0.2,0.1-0.3,0.1h-0.1l0,0
	c-0.1,0-0.2,0-0.3,0.1c-0.1,0.2-0.2,0.4-0.2,0.7c0,0.2,0,0.4,0.2,0.5c-0.2-0.3-0.4-0.6-0.3-0.9c0-0.4,0.1-0.7,0.4-1
	c0.1-0.2,0.3-0.3,0.5-0.4S12.3,11.6,12.5,11.6z"/>
</svg>
