<?xml version="1.0" encoding="utf-8"?>
<!--
  - @package   pkg_radicalmicro
  - @version   __DEPLOY_VERSION__
  - @author    Dmitriy Vasyukov - https://fictionlabs.ru
  - @copyright Copyright (c) 2022 Fictionlabs. All rights reserved.
  - @license   GNU/GPL license: http://www.gnu.org/copyleft/gpl.html
  - @link      https://fictionlabs.ru/
  -->

<svg version="1.1" id="Слой_1" xmlns="http://www.w3.org/2000/svg" xmlns:xlink="http://www.w3.org/1999/xlink" x="0px" y="0px"
	 width="30px" height="30px" viewBox="0 0 30 30" style="enable-background:new 0 0 30 30;" xml:space="preserve">
<path d="M9.2,5.6c-1.6,0-2.8,0.2-3.3,0.7S5.1,7.8,5.1,9.3v2.4c0,1-0.2,1.7-0.5,2.1c-0.3,0.4-1,0.6-1.9,0.6H2v1.4h0.6
	c0.9,0,1.6,0.2,1.9,0.6s0.5,1.1,0.5,2.1v2.4c0,1.5,0.3,2.4,0.8,2.9c0.6,0.5,1.7,0.7,3.3,0.7h0.7V23H9.2c-0.9,0-1.5-0.1-1.8-0.4
	c-0.3-0.3-0.4-0.9-0.4-1.9v-2.5c0-1-0.2-1.8-0.5-2.2c-0.3-0.5-0.8-0.8-1.5-1c0.7-0.2,1.2-0.5,1.5-1c0.3-0.5,0.5-1.2,0.5-2.3V9.3
	c0-1,0.1-1.6,0.4-1.9C7.6,7.2,8.2,7,9.2,7h0.7V5.6H9.2z M20.1,5.6V7h0.7c0.9,0,1.5,0.1,1.8,0.4c0.3,0.3,0.4,0.9,0.4,1.9v2.5
	c0,1,0.1,1.8,0.4,2.3c0.3,0.5,0.8,0.8,1.6,1c-0.7,0.2-1.2,0.5-1.5,1c-0.3,0.5-0.5,1.2-0.5,2.3v2.5c0,1-0.1,1.6-0.4,1.9
	c-0.3,0.3-0.9,0.4-1.8,0.4h-0.7v1.4h0.6c1.6,0,2.7-0.2,3.3-0.7c0.6-0.5,0.8-1.5,0.8-2.9l0-2.4c0-1,0.2-1.7,0.5-2.1s1-0.6,1.9-0.6H28
	v-1.4h-0.6c-0.9,0-1.6-0.2-1.9-0.6c-0.4-0.4-0.5-1.1-0.5-2.1V9.3c0-1.5-0.3-2.5-0.9-2.9s-1.7-0.7-3.3-0.7H20.1z M18,7.8
	c-0.5,0-0.9,0.1-1.3,0.4c-0.4,0.2-0.7,0.6-1,1c-0.3,0.5-0.4,1.1-0.3,1.7l0-0.1v0.1c0,0.1-0.1,0.2-0.1,0.3c-0.1,0.2-0.2,0.4-0.4,0.5
	c-0.2,0.2-0.5,0.5-0.9,0.7c-0.7,0.4-1.2,0.6-1.8,0.6c-0.2,0-0.4,0-0.5-0.1l0,0l0.1,0.1L11.6,13c-0.6-0.3-1.3-0.4-2-0.2
	C8.9,13,8.4,13.4,8,14.1c-0.3,0.6-0.4,1.3-0.2,2c0.2,0.7,0.6,1.2,1.3,1.6c0.5,0.2,1,0.3,1.5,0.3c0.5-0.1,1-0.2,1.4-0.6l0,0.1
	l0.1-0.1c0.1,0,0.2-0.1,0.4-0.1c0.2,0,0.4,0,0.7,0.1c0.3,0.1,0.7,0.2,1.1,0.4c0.6,0.3,1,0.6,1.2,1c0.2,0.2,0.3,0.5,0.3,0.7
	c0,0.5,0.1,0.9,0.4,1.4c0.3,0.4,0.6,0.8,1.1,1c0.6,0.3,1.3,0.4,2,0.2c0.7-0.2,1.2-0.6,1.6-1.3c0.3-0.6,0.4-1.3,0.2-2
	s-0.6-1.2-1.3-1.5c-0.1-0.1-0.2-0.1-0.3-0.1h0.1l-0.1-0.1c-0.1-0.1-0.2-0.2-0.2-0.3c-0.1-0.2-0.2-0.4-0.2-0.6
	c-0.1-0.3-0.1-0.7-0.1-1.1c0-0.4,0-0.8,0.1-1.1c0.1-0.3,0.1-0.5,0.2-0.7c0.1-0.1,0.1-0.2,0.2-0.3l0.1-0.1h-0.1
	c0.5-0.2,0.9-0.6,1.1-1.1c0.3-0.6,0.4-1.3,0.2-2C20.4,9,20,8.4,19.3,8.1C18.9,7.9,18.5,7.8,18,7.8z M18.1,8.2c0.5,0,0.9,0.1,1.2,0.4
	l0,0c-0.2-0.2-0.4-0.2-0.8-0.2c-0.4,0-0.7,0.2-1.1,0.4c0.1,0.1,0.2,0.2,0.2,0.4s0,0.3-0.1,0.4c-0.1,0.1-0.2,0.2-0.4,0.2
	c-0.1,0-0.1,0-0.2,0h0c-0.2-0.1-0.3,0-0.4,0.2c-0.2,0.3-0.3,0.6-0.3,1c0,0.3,0.1,0.6,0.2,0.8c-0.3-0.4-0.5-0.8-0.5-1.3
	c0-0.5,0.2-1,0.6-1.4c0.2-0.2,0.5-0.4,0.8-0.5C17.5,8.3,17.8,8.2,18.1,8.2z M16.3,12.6c0.1,0,0.2,0,0.3,0.1l0.3,0.2
	c0.2,0.1,0.3,0.1,0.5,0.2c0.4,0.3,0.6,1,0.6,2.1c0,0.6-0.1,1.1-0.2,1.5c-0.1,0.3-0.2,0.5-0.4,0.6c-0.2,0.1-0.5,0.2-0.6,0.4
	c-0.2,0.1-0.4,0.1-0.6,0c-0.4-0.1-0.9-0.3-1.5-0.5c-0.6-0.3-1-0.7-1.3-1c-0.2-0.2-0.3-0.4-0.3-0.6c0-0.2,0-0.5-0.1-0.7l0,0v-0.1
	c0-0.1,0.1-0.2,0.1-0.3c0.1-0.2,0.3-0.3,0.4-0.5c0.2-0.2,0.5-0.5,0.9-0.7C15.1,12.8,15.7,12.6,16.3,12.6L16.3,12.6z M10.4,13.2
	c0.5,0,0.9,0.1,1.2,0.4h0c-0.2-0.2-0.4-0.2-0.8-0.2c-0.4,0-0.7,0.2-1.1,0.4c0.1,0.1,0.1,0.2,0.1,0.4s0,0.3-0.1,0.4s-0.2,0.2-0.4,0.2
	c0,0-0.1,0-0.1,0H9.1c-0.1-0.1-0.3,0-0.4,0.2c-0.2,0.3-0.2,0.6-0.3,0.9s0.1,0.6,0.2,0.7c-0.3-0.3-0.5-0.8-0.5-1.3
	c0-0.5,0.2-1,0.6-1.4c0.2-0.2,0.5-0.4,0.7-0.5C9.8,13.2,10.1,13.2,10.4,13.2z M18.6,17.4c0.5,0,0.9,0.1,1.2,0.4h0
	c-0.2-0.2-0.4-0.2-0.8-0.2c-0.4,0-0.7,0.2-1.1,0.4c0.1,0.1,0.1,0.2,0.1,0.4c0,0.1,0,0.3-0.1,0.4c-0.1,0.1-0.2,0.2-0.4,0.2h-0.1
	l-0.1,0c-0.1,0-0.3,0-0.4,0.2c-0.2,0.3-0.3,0.6-0.3,1c0,0.3,0.1,0.6,0.2,0.8c-0.3-0.4-0.5-0.8-0.5-1.3c0-0.5,0.2-1,0.6-1.4
	c0.2-0.2,0.5-0.4,0.7-0.5C18,17.4,18.3,17.4,18.6,17.4z"/>
</svg>
