<?xml version="1.0" encoding="utf-8"?>
<!--
  - @package   pkg_radicalmicro
  - @version   0.2.4
  - @author    Dmitriy Vasyukov - https://fictionlabs.ru
  - @copyright Copyright (c) 2022 Fictionlabs. All rights reserved.
  - @license   GNU/GPL license: http://www.gnu.org/copyleft/gpl.html
  - @link      https://fictionlabs.ru/
  -->

<svg version="1.1" id="Flat" xmlns="http://www.w3.org/2000/svg" xmlns:xlink="http://www.w3.org/1999/xlink" x="0px" y="0px"
	 width="20px" height="20px" viewBox="0 0 20 20" style="enable-background:new 0 0 20 20;" xml:space="preserve">
<path d="M5.6,7.5l-3,2.5l3,2.5c0.3,0.2,0.3,0.6,0.1,0.8c-0.2,0.3-0.6,0.3-0.8,0.1c0,0,0,0,0,0l-3.6-3C1,10.3,0.9,9.9,1.1,9.6
	c0,0,0-0.1,0.1-0.1l3.6-3c0.3-0.2,0.6-0.2,0.8,0.1C5.9,6.9,5.8,7.3,5.6,7.5C5.6,7.5,5.6,7.5,5.6,7.5L5.6,7.5z M18.8,9.5l-3.6-3
	c-0.3-0.2-0.6-0.2-0.8,0.1c-0.2,0.3-0.2,0.6,0.1,0.8c0,0,0,0,0,0l3,2.5l-3,2.5c-0.3,0.2-0.3,0.6-0.1,0.8s0.6,0.3,0.8,0.1
	c0,0,0,0,0,0l3.6-3C19,10.3,19.1,9.9,18.8,9.5C18.8,9.6,18.8,9.6,18.8,9.5L18.8,9.5z M12.6,2.8c-0.3-0.1-0.7,0-0.8,0.4L7,16.4
	c-0.1,0.3,0,0.7,0.4,0.8c0.3,0.1,0.7,0,0.8-0.4c0,0,0,0,0,0L13,3.6C13.1,3.3,12.9,3,12.6,2.8L12.6,2.8z"/>
</svg>
