<?xml version="1.0" encoding="utf-8"?>
<!--
  - @package   pkg_radicalmicro
  - @version   __DEPLOY_VERSION__
  - @author    Dmitriy Vasyukov - https://fictionlabs.ru
  - @copyright Copyright (c) 2022 Fictionlabs. All rights reserved.
  - @license   GNU/GPL license: http://www.gnu.org/copyleft/gpl.html
  - @link      https://fictionlabs.ru/
  -->

<svg version="1.1" id="Flat" xmlns="http://www.w3.org/2000/svg" xmlns:xlink="http://www.w3.org/1999/xlink" x="0px" y="0px"
	 width="30px" height="30px" viewBox="0 0 30 30" style="enable-background:new 0 0 30 30;" xml:space="preserve">
<path d="M8.6,11.3L4.2,15l4.4,3.7C9,19,9,19.5,8.7,19.9c-0.3,0.4-0.9,0.4-1.2,0.1c0,0,0,0,0,0l-5.2-4.3c-0.4-0.3-0.4-0.9-0.1-1.2
	c0,0,0.1-0.1,0.1-0.1L7.5,10c0.4-0.3,0.9-0.3,1.2,0.1C9,10.5,9,11,8.6,11.3C8.6,11.3,8.6,11.3,8.6,11.3L8.6,11.3z M27.7,14.3
	L22.5,10c-0.4-0.3-0.9-0.3-1.2,0.1C21,10.5,21,11,21.4,11.3c0,0,0,0,0,0l4.4,3.7l-4.4,3.7C21,19,21,19.5,21.3,19.9
	c0.3,0.4,0.9,0.4,1.2,0.1c0,0,0,0,0,0l5.2-4.3c0.4-0.3,0.4-0.9,0.1-1.2C27.8,14.4,27.7,14.4,27.7,14.3L27.7,14.3z M18.8,4.7
	c-0.4-0.2-0.9,0.1-1.1,0.5l-6.9,19.1c-0.2,0.4,0.1,0.9,0.5,1.1c0.4,0.2,0.9-0.1,1.1-0.5c0,0,0,0,0,0l6.9-19.1
	C19.4,5.3,19.2,4.8,18.8,4.7L18.8,4.7z"/>
</svg>
